<svg width="143" height="143" viewBox="0 0 143 143" fill="none" xmlns="http://www.w3.org/2000/svg">
  <path fill-rule="evenodd" clip-rule="evenodd" d="M73.7092 35.1192C55.0179 34.139 40.4318 47.1088 37.2154 67.4088C34.5517 84.2196 39.2743 104.704 43.3137 105.735C45.027 106.172 49.15 103.019 52.1496 100.19C52.7135 99.6581 53.5663 99.5687 54.2276 99.973C58.9036 102.832 64.1976 104.981 70.0341 105.287C89.223 106.293 106.228 91.2753 107.233 72.0849C108.238 52.8944 92.8981 36.1255 73.7092 35.1192ZM42.4092 132.576C41.6855 132.064 40.6884 132.203 40.0819 132.849C31.9754 141.496 11.2288 147.56 10.2785 135.76C10.2785 126.514 8.2018 118.723 5.91534 110.144C3.11501 99.6379 0 87.951 0 70.9653C0 30.4611 33.2185 0 72.6045 0C111.99 0 142.871 31.9483 142.871 71.3586C142.871 110.769 111.008 141.931 72.9772 141.931C59.4849 141.931 52.9376 140.03 42.4092 132.576Z" fill="#000000" />
</svg>