<svg width="20" height="20" viewBox="0 0 20 20" fill="none" xmlns="http://www.w3.org/2000/svg">
    <g clip-path="url(#clip0_131_336)">
        <path fill-rule="evenodd" clip-rule="evenodd"
            d="M19.5417 4.95602C19.68 4.50102 19.5417 4.16602 18.8792 4.16602H16.6917C16.135 4.16602 15.8783 4.45518 15.7392 4.77435C15.7392 4.77435 14.6267 7.43768 13.0508 9.16768C12.5408 9.66935 12.3092 9.82852 12.0308 9.82852C11.8917 9.82852 11.6825 9.66935 11.6825 9.21352V4.95602C11.6825 4.40935 11.5292 4.16602 11.0658 4.16602H7.62583C7.27833 4.16602 7.06917 4.41935 7.06917 4.66018C7.06917 5.17768 7.8575 5.29768 7.93833 6.75435V9.91935C7.93833 10.6135 7.81083 10.7393 7.5325 10.7393C6.79083 10.7393 4.98667 8.06352 3.91583 5.00185C3.70833 4.40602 3.49833 4.16602 2.93917 4.16602H0.75C0.125 4.16602 0 4.45518 0 4.77435C0 5.34268 0.741667 8.16602 3.45417 11.9002C5.2625 14.4502 7.80833 15.8327 10.1275 15.8327C11.5183 15.8327 11.69 15.526 11.69 14.9968V13.0693C11.69 12.4552 11.8217 12.3327 12.2625 12.3327C12.5875 12.3327 13.1433 12.4927 14.4417 13.7218C15.925 15.1793 16.1692 15.8327 17.0042 15.8327H19.1917C19.8167 15.8327 20.13 15.526 19.95 14.9193C19.7517 14.316 19.0433 13.4402 18.1042 12.401C17.5942 11.8093 16.8292 11.1718 16.5967 10.8527C16.2725 10.4435 16.365 10.261 16.5967 9.89685C16.5967 9.89685 19.2633 6.20852 19.5408 4.95602"
            fill="black" />
    </g>
    <defs>
        <clipPath id="clip0_131_336">
            <rect width="20" height="20" fill="white" />
        </clipPath>
    </defs>
</svg>