<svg width="8" height="6" viewBox="0 0 8 6" fill="none" xmlns="http://www.w3.org/2000/svg">
    <path
        d="M7.44762 0.161765C7.39694 0.110517 7.33659 0.0698319 7.27008 0.0420647C7.20356 0.0142974 7.1322 0 7.06012 0C6.98804 0 6.91668 0.0142974 6.85016 0.0420647C6.78365 0.0698319 6.7233 0.110517 6.67262 0.161765L2.64262 4.19177L0.95262 2.37177C0.853164 2.26502 0.715375 2.20215 0.569565 2.19699C0.423756 2.19183 0.281869 2.24481 0.17512 2.34427C0.06837 2.44372 0.00550141 2.58151 0.000344162 2.72732C-0.00481309 2.87313 0.0481635 3.01502 0.14762 3.12177L2.61762 5.77177L7.44762 0.951765C7.50054 0.900489 7.54262 0.8391 7.57136 0.771246C7.60009 0.703391 7.6149 0.630454 7.6149 0.556765C7.6149 0.483077 7.60009 0.41014 7.57136 0.342285C7.54262 0.27443 7.50054 0.213042 7.44762 0.161765Z"
        fill="black" />
</svg>